<svg width="32" height="28" viewBox="0 0 32 28" fill="none" xmlns="http://www.w3.org/2000/svg">
<path d="M18.31 0.398926C14.7646 0.399192 11.3644 1.80766 8.85732 4.31456C6.35023 6.82146 4.94152 10.2215 4.94099 13.7669H0.484985L6.26299 19.5449L6.36299 19.7529L12.363 13.7669H7.91199C7.90045 11.3476 8.72887 8.99928 10.2559 7.12272C11.7829 5.24615 13.9138 3.95768 16.2849 3.47721C18.6561 2.99674 21.1205 3.35405 23.2575 4.48816C25.3946 5.62227 27.0718 7.46288 28.003 9.69584C28.9342 11.9288 29.0615 14.4157 28.3634 16.7321C27.6652 19.0486 26.1848 21.0509 24.1748 22.3974C22.1648 23.7439 19.7498 24.3511 17.3419 24.1154C14.9341 23.8797 12.6827 22.8157 10.972 21.1049L8.86299 23.2139C10.4172 24.7683 12.3308 25.9153 14.4342 26.5534C16.5376 27.1915 18.766 27.3009 20.9218 26.872C23.0776 26.4431 25.0944 25.4891 26.7934 24.0945C28.4925 22.7 29.8213 20.9078 30.6622 18.877C31.5031 16.8461 31.8302 14.6392 31.6144 12.4517C31.3986 10.2643 30.6466 8.16378 29.425 6.3364C28.2034 4.50902 26.55 3.01113 24.6112 1.97545C22.6724 0.939775 20.5081 0.398274 18.31 0.398926ZM16.825 7.82593V15.2529L23.185 19.0259L24.254 17.2259L19.054 14.1359V7.82593H16.825Z" fill="#AEAEAE"/>
</svg>
