<svg width="27" height="28" viewBox="0 0 27 28" fill="none" xmlns="http://www.w3.org/2000/svg">
<path d="M13.5599 14.0208C14.859 14.0208 16.1288 13.6356 17.2089 12.9139C18.289 12.1922 19.1309 11.1664 19.628 9.96623C20.1251 8.76609 20.2552 7.44548 20.0017 6.17142C19.7483 4.89735 19.1228 3.72704 18.2042 2.80849C17.2857 1.88994 16.1153 1.2644 14.8413 1.01097C13.5672 0.757543 12.2466 0.887611 11.0465 1.38473C9.84632 1.88184 8.82054 2.72368 8.09883 3.80378C7.37713 4.88389 6.99193 6.15374 6.99193 7.45277C6.99166 8.31537 7.16137 9.16956 7.49135 9.96654C7.82133 10.7635 8.30512 11.4877 8.91506 12.0976C9.52501 12.7076 10.2492 13.1914 11.0462 13.5213C11.8431 13.8513 12.6973 14.021 13.5599 14.0208ZM13.5599 17.3048C9.17593 17.3048 0.424927 19.5048 0.424927 23.8728V27.1568H26.6959V23.8728C26.6959 19.5048 17.9439 17.3048 13.5599 17.3048Z" fill="#0E568C"/>
</svg>
